<?xml version="1.0" encoding="UTF-8"?>
<svg xmlns="http://www.w3.org/2000/svg" width="1128" height="764" viewBox="0 0 1128 764">
  <rect width="100%" height="100%" fill="#0e0b08"/>
  <text x="24" y="14" fill="#5c5346" font-family="ui-monospace, SFMono-Regular, Consolas, monospace" font-size="11">standard-120x40.txt</text>
  <g fill="#ece2cf" font-family="ui-monospace, SFMono-Regular, Consolas, monospace" font-size="14" xml:space="preserve">
<text x="24" y="36">⠋ SPARROW  Soaring    route: deepseek-v4-pro → claude-sonnet-4 → local-verifier           $0.0421 ▲  5166 tok  ● TRUSTED</text>
<text x="24" y="54">────────────────────────────────────────────────────────────────────────────────────────────────────────────────────────</text>
<text x="24" y="72"> agents · swarm 0s</text>
<text x="24" y="90">   ● planner  claude-sonnet-4 · working ▌ · route selected · design constraints mapped</text>
<text x="24" y="108">   ● coder    claude-sonnet-4 · working ▌ · editing the ratatui layout and visual density</text>
<text x="24" y="126">   ● verifier claude-sonnet-4 · working ▌ · checking overflow at 80, 100 and 140 columns</text>
<text x="24" y="144"> SPARROW › session</text>
<text x="24" y="162"> → Type a task or /command to begin.</text>
<text x="24" y="180">   ▾ started: audit and redesign the Sparrow TUI</text>
<text x="24" y="198">   ↳ route: deepseek-v4-pro → claude-sonnet-4 → local-verifier</text>
<text x="24" y="216">   ▾ planner (claude-sonnet-4)</text>
<text x="24" y="234">   ● planner — route selected · design constraints mapped</text>
<text x="24" y="252">   ▾ coder (claude-sonnet-4)</text>
<text x="24" y="270">   ● coder — editing the ratatui layout and visual density</text>
<text x="24" y="288">   ▾ verifier (claude-sonnet-4)</text>
<text x="24" y="306">   ● verifier — checking overflow at 80, 100 and 140 columns</text>
<text x="24" y="324"> ‣ ▾ tool · read_file</text>
<text x="24" y="342">       render_cockpit · render_swarm_lanes · render_scroll · render_input</text>
<text x="24" y="360"> ◇ src/tui/mod.rs  +2 / -1  · proposed</text>
<text x="24" y="378"> ● checkpoint: before tui redesign</text>
<text x="24" y="396"> Fin : ok.</text>
<text x="24" y="414">   Coût : environ 4 centimes.</text>
<text x="24" y="432"></text>
<text x="24" y="450">────────────────────────────────────────────────────────────────────────────────────────────────────────────────────────</text>
<text x="24" y="468">◇ src/tui/mod.rs  +2 / -1  · proposed</text>
<text x="24" y="486">   1 @@ -1,3 +1,5 @@</text>
<text x="24" y="504">   2 -old framed panels</text>
<text x="24" y="522">   3 +minimal rails</text>
<text x="24" y="540">   4 +compact agent lanes</text>
<text x="24" y="558"></text>
<text x="24" y="576"></text>
<text x="24" y="594"></text>
<text x="24" y="612"></text>
<text x="24" y="630"></text>
<text x="24" y="648"></text>
<text x="24" y="666">●  before tui redesign · ckpt-ui-    rewind ← · snapshot before each batch</text>
<text x="24" y="684"></text>
<text x="24" y="702">Esc/Ctrl+C quit  Tab complete/agents  / commands  Ctrl+L clear  Ctrl+I inject  PgUp/PgDn scroll</text>
<text x="24" y="720">────────────────────────────────────────────────────────────────────────────────────────────────────────────────────────</text>
<text x="24" y="738">◆ sparrow › ▌</text>
  </g>
</svg>
